<svg xmlns="http://www.w3.org/2000/svg" viewBox="0 0 800 600" width="800" height="600" role="img">

  <defs>
    <linearGradient id="skygallery5" x1="0" y1="0" x2="0" y2="1">
      <stop offset="0%"   stop-color="#050f1c"/>
      <stop offset="45%"  stop-color="#0e2b46"/>
      <stop offset="82%"  stop-color="#c98b4b"/>
      <stop offset="100%" stop-color="#f0c98a"/>
    </linearGradient>
    <linearGradient id="seagallery5" x1="0" y1="0" x2="0" y2="1">
      <stop offset="0%"   stop-color="#2a5a7d"/>
      <stop offset="40%"  stop-color="#0e2b46"/>
      <stop offset="100%" stop-color="#050f1c"/>
    </linearGradient>
    <radialGradient id="glowgallery5" cx="50%" cy="50%" r="50%">
      <stop offset="0%"   stop-color="#f0c98a" stop-opacity=".95"/>
      <stop offset="55%"  stop-color="#c98b4b" stop-opacity=".35"/>
      <stop offset="100%" stop-color="#c98b4b" stop-opacity="0"/>
    </radialGradient>
    <linearGradient id="viggallery5" x1="0" y1="0" x2="0" y2="1">
      <stop offset="0%"   stop-color="#04101c" stop-opacity=".42"/>
      <stop offset="40%"  stop-color="#04101c" stop-opacity="0"/>
      <stop offset="100%" stop-color="#04101c" stop-opacity=".55"/>
    </linearGradient>
    <linearGradient id="reflgallery5" x1="0" y1="0" x2="0" y2="1">
      <stop offset="0%"   stop-color="#f0c98a" stop-opacity=".34"/>
      <stop offset="45%"  stop-color="#f0c98a" stop-opacity=".12"/>
      <stop offset="100%" stop-color="#f0c98a" stop-opacity="0"/>
    </linearGradient>
    <filter id="softgallery5" x="-20%" y="-20%" width="140%" height="140%">
      <feGaussianBlur stdDeviation="1.4"/>
    </filter>
    <filter id="blurgallery5" x="-25%" y="-25%" width="150%" height="150%">
      <feGaussianBlur stdDeviation="6"/>
    </filter>
  </defs>
<rect width="800" height="600" fill="url(#skygallery5)"/>
<circle cx="624" cy="336" r="216" fill="url(#glowgallery5)"/>
<circle cx="624" cy="336" r="35" fill="#f0c98a" opacity=".9" filter="url(#softgallery5)"/>
<g fill="#050f1c" opacity="0.85"><rect x="24.0" y="299.1" width="15.1" height="88.9" rx="1"/><rect x="56.0" y="270.4" width="26.8" height="117.6" rx="1"/><rect x="88.0" y="309.6" width="24.3" height="78.4" rx="1"/><rect x="120.0" y="257.4" width="32.9" height="130.6" rx="1"/><rect x="127.9" y="237.1" width="17.1" height="22.8" rx="1"/><rect x="135.5" y="228.6" width="1.8" height="28.7"/><rect x="152.0" y="286.1" width="17.3" height="101.9" rx="1"/><rect x="184.0" y="240.4" width="24.5" height="147.6" rx="1"/><rect x="189.9" y="217.4" width="12.8" height="25.9" rx="1"/><rect x="216.0" y="292.6" width="16.7" height="95.4" rx="1"/><rect x="248.0" y="262.6" width="20.1" height="125.4" rx="1"/><rect x="252.8" y="243.2" width="10.4" height="21.9" rx="1"/><rect x="280.0" y="301.7" width="31.1" height="86.3" rx="1"/><rect x="320.0" y="249.5" width="30.4" height="138.5" rx="1"/><rect x="327.3" y="228.0" width="15.8" height="24.2" rx="1"/><rect x="334.3" y="220.8" width="1.8" height="28.7"/><rect x="360.0" y="280.9" width="21.9" height="107.1" rx="1"/><rect x="400.0" y="233.9" width="34.3" height="154.1" rx="1"/><rect x="408.2" y="209.8" width="17.8" height="27.0" rx="1"/><rect x="440.0" y="288.7" width="32.2" height="99.3" rx="1"/><rect x="480.0" y="260.0" width="31.6" height="128.0" rx="1"/><rect x="487.6" y="240.1" width="16.4" height="22.3" rx="1"/><rect x="520.0" y="304.4" width="33.4" height="83.6" rx="1"/><rect x="560.0" y="273.0" width="26.6" height="115.0" rx="1"/><rect x="572.4" y="244.3" width="1.8" height="28.7"/><rect x="600.0" y="293.9" width="30.9" height="94.1" rx="1"/><rect x="640.0" y="252.1" width="19.1" height="135.9" rx="1"/><rect x="644.6" y="231.0" width="9.9" height="23.7" rx="1"/><rect x="680.0" y="299.1" width="30.9" height="88.9" rx="1"/><rect x="720.0" y="278.2" width="31.6" height="109.8" rx="1"/><rect x="760.0" y="307.0" width="15.6" height="81.0" rx="1"/></g>
<rect x="0" y="384" width="800" height="216" fill="url(#seagallery5)"/>
<path d="M598 384 L650 384 L732 600 L516 600 Z" fill="url(#reflgallery5)" filter="url(#blurgallery5)"/><rect x="607.6" y="385.8" width="24.1" height="1.1" rx="1.5" fill="#ffffff" opacity="0.340"/><rect x="630.3" y="388.9" width="18.9" height="1.1" rx="1.5" fill="#ffffff" opacity="0.330"/><rect x="613.3" y="392.6" width="21.1" height="1.2" rx="1.5" fill="#ffffff" opacity="0.320"/><rect x="627.4" y="396.9" width="27.9" height="1.3" rx="1.5" fill="#ffffff" opacity="0.310"/><rect x="644.9" y="401.6" width="14.9" height="1.4" rx="1.5" fill="#ffffff" opacity="0.300"/><rect x="648.5" y="406.7" width="24.6" height="1.4" rx="1.5" fill="#ffffff" opacity="0.290"/><rect x="612.8" y="412.2" width="39.3" height="1.5" rx="1.5" fill="#ffffff" opacity="0.280"/><rect x="640.8" y="417.9" width="16.6" height="1.6" rx="1.5" fill="#ffffff" opacity="0.270"/><rect x="643.7" y="424.0" width="35.4" height="1.7" rx="1.5" fill="#ffffff" opacity="0.260"/><rect x="605.6" y="430.4" width="19.8" height="1.7" rx="1.5" fill="#ffffff" opacity="0.250"/><rect x="572.1" y="437.0" width="29.6" height="1.8" rx="1.5" fill="#ffffff" opacity="0.240"/><rect x="640.6" y="443.9" width="44.5" height="1.9" rx="1.5" fill="#ffffff" opacity="0.230"/><rect x="540.3" y="451.0" width="51.2" height="2.0" rx="1.5" fill="#ffffff" opacity="0.220"/><rect x="579.9" y="458.3" width="25.1" height="2.0" rx="1.5" fill="#ffffff" opacity="0.210"/><rect x="650.5" y="465.8" width="26.8" height="2.1" rx="1.5" fill="#ffffff" opacity="0.200"/><rect x="583.2" y="473.6" width="23.1" height="2.2" rx="1.5" fill="#ffffff" opacity="0.190"/><rect x="612.3" y="481.5" width="38.1" height="2.2" rx="1.5" fill="#ffffff" opacity="0.180"/><rect x="565.7" y="489.6" width="27.1" height="2.3" rx="1.5" fill="#ffffff" opacity="0.170"/><rect x="562.2" y="498.0" width="40.4" height="2.4" rx="1.5" fill="#ffffff" opacity="0.160"/><rect x="599.1" y="506.4" width="39.3" height="2.5" rx="1.5" fill="#ffffff" opacity="0.150"/><rect x="521.0" y="515.1" width="79.3" height="2.5" rx="1.5" fill="#ffffff" opacity="0.140"/><rect x="592.1" y="523.9" width="40.7" height="2.6" rx="1.5" fill="#ffffff" opacity="0.130"/><rect x="567.9" y="532.9" width="32.8" height="2.7" rx="1.5" fill="#ffffff" opacity="0.120"/><rect x="667.0" y="542.0" width="81.2" height="2.8" rx="1.5" fill="#ffffff" opacity="0.110"/><rect x="543.2" y="551.3" width="56.4" height="2.8" rx="1.5" fill="#ffffff" opacity="0.100"/><rect x="647.8" y="560.8" width="54.9" height="2.9" rx="1.5" fill="#ffffff" opacity="0.090"/><rect x="538.2" y="570.4" width="81.1" height="3.0" rx="1.5" fill="#ffffff" opacity="0.080"/><rect x="700.2" y="580.1" width="41.6" height="3.1" rx="1.5" fill="#ffffff" opacity="0.070"/><rect x="516.5" y="590.0" width="56.0" height="3.1" rx="1.5" fill="#ffffff" opacity="0.060"/><rect x="526.6" y="600.0" width="104.5" height="3.2" rx="1.5" fill="#ffffff" opacity="0.050"/>
<rect x="421.8" y="384.8" width="63.4" height="1.3" rx="2" fill="#ffffff" opacity="0.185"/><rect x="46.9" y="386.8" width="78.8" height="1.4" rx="2" fill="#ffffff" opacity="0.179"/><rect x="655.0" y="389.5" width="94.2" height="1.5" rx="2" fill="#ffffff" opacity="0.174"/><rect x="657.4" y="393.0" width="109.5" height="1.6" rx="2" fill="#ffffff" opacity="0.168"/><rect x="560.4" y="397.1" width="124.9" height="1.7" rx="2" fill="#ffffff" opacity="0.163"/><rect x="511.8" y="401.9" width="140.3" height="1.8" rx="2" fill="#ffffff" opacity="0.158"/><rect x="630.1" y="407.2" width="155.7" height="1.9" rx="2" fill="#ffffff" opacity="0.152"/><rect x="666.9" y="413.1" width="171.1" height="2.0" rx="2" fill="#ffffff" opacity="0.147"/><rect x="87.3" y="419.6" width="186.5" height="2.1" rx="2" fill="#ffffff" opacity="0.142"/><rect x="204.4" y="426.6" width="201.8" height="2.2" rx="2" fill="#ffffff" opacity="0.136"/><rect x="281.8" y="434.0" width="217.2" height="2.3" rx="2" fill="#ffffff" opacity="0.131"/><rect x="-78.1" y="442.0" width="232.6" height="2.4" rx="2" fill="#ffffff" opacity="0.125"/><rect x="450.5" y="450.5" width="248.0" height="2.5" rx="2" fill="#ffffff" opacity="0.120"/><rect x="138.8" y="459.4" width="263.4" height="2.6" rx="2" fill="#ffffff" opacity="0.115"/><rect x="99.9" y="468.8" width="278.8" height="2.7" rx="2" fill="#ffffff" opacity="0.109"/><rect x="263.9" y="478.6" width="294.2" height="2.8" rx="2" fill="#ffffff" opacity="0.104"/><rect x="-113.2" y="488.9" width="309.5" height="2.9" rx="2" fill="#ffffff" opacity="0.098"/><rect x="158.6" y="499.6" width="324.9" height="3.0" rx="2" fill="#ffffff" opacity="0.093"/><rect x="523.3" y="510.7" width="340.3" height="3.1" rx="2" fill="#ffffff" opacity="0.088"/><rect x="367.9" y="522.3" width="355.7" height="3.2" rx="2" fill="#ffffff" opacity="0.082"/><rect x="-136.1" y="534.2" width="371.1" height="3.3" rx="2" fill="#ffffff" opacity="0.077"/><rect x="476.7" y="546.6" width="386.5" height="3.4" rx="2" fill="#ffffff" opacity="0.072"/><rect x="-78.9" y="559.4" width="401.8" height="3.5" rx="2" fill="#ffffff" opacity="0.066"/><rect x="424.2" y="572.5" width="417.2" height="3.6" rx="2" fill="#ffffff" opacity="0.061"/><rect x="420.2" y="586.1" width="432.6" height="3.7" rx="2" fill="#ffffff" opacity="0.055"/><rect x="-171.8" y="600.0" width="448.0" height="3.8" rx="2" fill="#ffffff" opacity="0.050"/>
<g transform="translate(124.4,295.0) scale(2.3120)" fill="#050f1c">
      <!-- outboards: two shadowed behind, one solid in front -->
      <g opacity=".45">
        <rect x="1.5" y="27" width="7" height="17" rx="2.6"/>
        <path d="M3 43 h4.5 l1 8 h-2.2 l-.6 4 h-1.4 l-.6 -4 h-1.7 z"/>
      </g>
      <g opacity=".7">
        <rect x="3.5" y="26.5" width="7" height="17.5" rx="2.6"/>
        <path d="M5 43.5 h4.5 l1 8 h-2.2 l-.6 4 h-1.4 l-.6 -4 h-1.7 z"/>
      </g>
      <rect x="5.5" y="26" width="7.5" height="18" rx="2.6"/>
      <path d="M7 43 h5 l1.1 8.5 h-2.4 l-.7 4.5 h-1.5 l-.7 -4.5 h-1.9 z"/>

      <!-- hull -->
      <path d="M13 27 L13 41
               C 38 44, 64 41.5, 87 35
               C 91 33.5, 93.5 30, 94.5 20.5
               C 70 24, 40 26, 13 27 Z"/>
      <!-- boot stripe -->
      <path d="M13 41 C 38 44, 64 41.5, 87 35 L 86 32.8
               C 64 39.3, 38 41.8, 13 38.8 Z" opacity=".45"/>
      <!-- hull window -->
      <path d="M62 31.5 L78 29.5 L77 32 L61 33.5 Z" opacity=".35"/>

      <!-- hardtop -->
      <rect x="38" y="11.5" width="35" height="3" rx="1.5"/>
      <!-- aft posts -->
      <rect x="40.5" y="14" width="2" height="12.5"/>
      <rect x="52"   y="14" width="1.8" height="12.5" opacity=".7"/>
      <!-- raked wraparound screen, meeting the hardtop at its forward edge -->
      <path d="M58 26.3 L69.5 14.5 L72.5 14.5 L72.5 25.6 Z"/>
      <path d="M60.5 25.4 L69.5 16 L70.8 16 L70.8 25 Z" opacity=".4"/>
      <!-- bow rail -->
      <path d="M76 25 L92 21.5" stroke="#050f1c" stroke-width="1.1" opacity=".55" fill="none"/>

      <!-- wake -->
      <path d="M-6 44 Q24 51 56 47.5 Q80 44.5 96 38 Q74 50 42 52.5 Q12 53 -6 44 Z" opacity=".3"/>
      <path d="M-10 41.5 Q20 46 52 43.5 Q76 41 92 36" stroke="#ffffff" stroke-width="1.2" opacity=".16" fill="none"/>
    </g>
<rect width="800" height="600" fill="url(#viggallery5)"/>
</svg>