<svg xmlns="http://www.w3.org/2000/svg" viewBox="0 0 800 600" width="800" height="600" role="img">

  <defs>
    <linearGradient id="skygallery1" x1="0" y1="0" x2="0" y2="1">
      <stop offset="0%"   stop-color="#0b3a5c"/>
      <stop offset="45%"  stop-color="#1770a0"/>
      <stop offset="82%"  stop-color="#8fe0dc"/>
      <stop offset="100%" stop-color="#e8f6f3"/>
    </linearGradient>
    <linearGradient id="seagallery1" x1="0" y1="0" x2="0" y2="1">
      <stop offset="0%"   stop-color="#3fb2c4"/>
      <stop offset="40%"  stop-color="#1770a0"/>
      <stop offset="100%" stop-color="#0b3a5c"/>
    </linearGradient>
    <radialGradient id="glowgallery1" cx="50%" cy="50%" r="50%">
      <stop offset="0%"   stop-color="#e8f6f3" stop-opacity=".95"/>
      <stop offset="55%"  stop-color="#8fe0dc" stop-opacity=".35"/>
      <stop offset="100%" stop-color="#8fe0dc" stop-opacity="0"/>
    </radialGradient>
    <linearGradient id="viggallery1" x1="0" y1="0" x2="0" y2="1">
      <stop offset="0%"   stop-color="#04101c" stop-opacity=".42"/>
      <stop offset="40%"  stop-color="#04101c" stop-opacity="0"/>
      <stop offset="100%" stop-color="#04101c" stop-opacity=".55"/>
    </linearGradient>
    <linearGradient id="reflgallery1" x1="0" y1="0" x2="0" y2="1">
      <stop offset="0%"   stop-color="#e8f6f3" stop-opacity=".34"/>
      <stop offset="45%"  stop-color="#e8f6f3" stop-opacity=".12"/>
      <stop offset="100%" stop-color="#e8f6f3" stop-opacity="0"/>
    </linearGradient>
    <filter id="softgallery1" x="-20%" y="-20%" width="140%" height="140%">
      <feGaussianBlur stdDeviation="1.4"/>
    </filter>
    <filter id="blurgallery1" x="-25%" y="-25%" width="150%" height="150%">
      <feGaussianBlur stdDeviation="6"/>
    </filter>
  </defs>
<rect width="800" height="600" fill="url(#skygallery1)"/>
<circle cx="640" cy="120" r="180" fill="url(#glowgallery1)"/>
<circle cx="640" cy="120" r="29" fill="#e8f6f3" opacity=".9" filter="url(#softgallery1)"/>
<rect x="0" y="276" width="800" height="324" fill="url(#seagallery1)"/>
<path d="M618 276 L662 276 L730 600 L550 600 Z" fill="url(#reflgallery1)" filter="url(#blurgallery1)"/><rect x="618.3" y="278.8" width="7.1" height="1.1" rx="1.5" fill="#ffffff" opacity="0.340"/><rect x="617.0" y="283.3" width="14.5" height="1.1" rx="1.5" fill="#ffffff" opacity="0.330"/><rect x="651.2" y="288.9" width="10.0" height="1.2" rx="1.5" fill="#ffffff" opacity="0.320"/><rect x="631.3" y="295.3" width="26.0" height="1.3" rx="1.5" fill="#ffffff" opacity="0.310"/><rect x="646.3" y="302.4" width="28.2" height="1.4" rx="1.5" fill="#ffffff" opacity="0.300"/><rect x="640.0" y="310.0" width="23.4" height="1.4" rx="1.5" fill="#ffffff" opacity="0.290"/><rect x="621.5" y="318.2" width="14.1" height="1.5" rx="1.5" fill="#ffffff" opacity="0.280"/><rect x="638.5" y="326.9" width="22.8" height="1.6" rx="1.5" fill="#ffffff" opacity="0.270"/><rect x="593.0" y="336.1" width="15.4" height="1.7" rx="1.5" fill="#ffffff" opacity="0.260"/><rect x="668.5" y="345.6" width="15.3" height="1.7" rx="1.5" fill="#ffffff" opacity="0.250"/><rect x="660.5" y="355.5" width="21.9" height="1.8" rx="1.5" fill="#ffffff" opacity="0.240"/><rect x="618.6" y="365.8" width="27.3" height="1.9" rx="1.5" fill="#ffffff" opacity="0.230"/><rect x="649.5" y="376.5" width="34.4" height="2.0" rx="1.5" fill="#ffffff" opacity="0.220"/><rect x="640.7" y="387.5" width="32.4" height="2.0" rx="1.5" fill="#ffffff" opacity="0.210"/><rect x="579.8" y="398.8" width="43.0" height="2.1" rx="1.5" fill="#ffffff" opacity="0.200"/><rect x="643.5" y="410.4" width="58.1" height="2.2" rx="1.5" fill="#ffffff" opacity="0.190"/><rect x="575.1" y="422.3" width="26.2" height="2.2" rx="1.5" fill="#ffffff" opacity="0.180"/><rect x="644.9" y="434.5" width="59.8" height="2.3" rx="1.5" fill="#ffffff" opacity="0.170"/><rect x="582.4" y="446.9" width="21.4" height="2.4" rx="1.5" fill="#ffffff" opacity="0.160"/><rect x="660.7" y="459.7" width="61.0" height="2.5" rx="1.5" fill="#ffffff" opacity="0.150"/><rect x="554.1" y="472.6" width="40.3" height="2.5" rx="1.5" fill="#ffffff" opacity="0.140"/><rect x="541.2" y="485.9" width="56.9" height="2.6" rx="1.5" fill="#ffffff" opacity="0.130"/><rect x="621.8" y="499.4" width="48.3" height="2.7" rx="1.5" fill="#ffffff" opacity="0.120"/><rect x="622.2" y="513.1" width="46.6" height="2.8" rx="1.5" fill="#ffffff" opacity="0.110"/><rect x="559.4" y="527.0" width="53.9" height="2.8" rx="1.5" fill="#ffffff" opacity="0.100"/><rect x="565.2" y="541.2" width="35.5" height="2.9" rx="1.5" fill="#ffffff" opacity="0.090"/><rect x="644.4" y="555.6" width="85.2" height="3.0" rx="1.5" fill="#ffffff" opacity="0.080"/><rect x="585.4" y="570.2" width="52.7" height="3.1" rx="1.5" fill="#ffffff" opacity="0.070"/><rect x="604.4" y="585.0" width="73.6" height="3.1" rx="1.5" fill="#ffffff" opacity="0.060"/><rect x="525.7" y="600.0" width="68.5" height="3.2" rx="1.5" fill="#ffffff" opacity="0.050"/>
<rect x="312.7" y="277.3" width="63.4" height="1.3" rx="2" fill="#ffffff" opacity="0.185"/><rect x="285.1" y="280.1" width="78.8" height="1.4" rx="2" fill="#ffffff" opacity="0.179"/><rect x="676.7" y="284.2" width="94.2" height="1.5" rx="2" fill="#ffffff" opacity="0.174"/><rect x="540.8" y="289.4" width="109.5" height="1.6" rx="2" fill="#ffffff" opacity="0.168"/><rect x="-29.4" y="295.6" width="124.9" height="1.7" rx="2" fill="#ffffff" opacity="0.163"/><rect x="120.3" y="302.8" width="140.3" height="1.8" rx="2" fill="#ffffff" opacity="0.158"/><rect x="-57.1" y="310.8" width="155.7" height="1.9" rx="2" fill="#ffffff" opacity="0.152"/><rect x="478.6" y="319.7" width="171.1" height="2.0" rx="2" fill="#ffffff" opacity="0.147"/><rect x="111.2" y="329.4" width="186.5" height="2.1" rx="2" fill="#ffffff" opacity="0.142"/><rect x="146.7" y="339.8" width="201.8" height="2.2" rx="2" fill="#ffffff" opacity="0.136"/><rect x="274.7" y="351.1" width="217.2" height="2.3" rx="2" fill="#ffffff" opacity="0.131"/><rect x="343.1" y="363.0" width="232.6" height="2.4" rx="2" fill="#ffffff" opacity="0.125"/><rect x="339.6" y="375.7" width="248.0" height="2.5" rx="2" fill="#ffffff" opacity="0.120"/><rect x="12.6" y="389.1" width="263.4" height="2.6" rx="2" fill="#ffffff" opacity="0.115"/><rect x="-10.8" y="403.2" width="278.8" height="2.7" rx="2" fill="#ffffff" opacity="0.109"/><rect x="-22.6" y="417.9" width="294.2" height="2.8" rx="2" fill="#ffffff" opacity="0.104"/><rect x="204.4" y="433.3" width="309.5" height="2.9" rx="2" fill="#ffffff" opacity="0.098"/><rect x="-80.7" y="449.4" width="324.9" height="3.0" rx="2" fill="#ffffff" opacity="0.093"/><rect x="429.8" y="466.1" width="340.3" height="3.1" rx="2" fill="#ffffff" opacity="0.088"/><rect x="13.9" y="483.4" width="355.7" height="3.2" rx="2" fill="#ffffff" opacity="0.082"/><rect x="365.6" y="501.4" width="371.1" height="3.3" rx="2" fill="#ffffff" opacity="0.077"/><rect x="114.2" y="519.9" width="386.5" height="3.4" rx="2" fill="#ffffff" opacity="0.072"/><rect x="260.5" y="539.0" width="401.8" height="3.5" rx="2" fill="#ffffff" opacity="0.066"/><rect x="56.3" y="558.8" width="417.2" height="3.6" rx="2" fill="#ffffff" opacity="0.061"/><rect x="-96.4" y="579.1" width="432.6" height="3.7" rx="2" fill="#ffffff" opacity="0.055"/><rect x="-108.1" y="600.0" width="448.0" height="3.8" rx="2" fill="#ffffff" opacity="0.050"/>
<g transform="translate(160.0,254.9) scale(3.8400)" fill="#0b3a5c">
      <path d="M4 36 L97 30 L99 36 Q96 46 84 50 L26 52 Q10 48 4 36 Z"/>
      <path d="M30 30 L36 17 Q54 14 70 16 L80 30 Z" opacity=".96"/>
      <path d="M33 30 L38 20 Q54 17.5 68 19.5 L76 30 Z" opacity=".55"/>
      <rect x="32" y="9" width="46" height="3.4" rx="1.7" opacity=".92"/>
      <rect x="34.5" y="11" width="2.6" height="7" opacity=".92"/>
      <rect x="73"   y="11" width="2.6" height="7" opacity=".92"/>
      <path d="M0 50 Q26 60 60 55 Q34 62 5 55 Z" opacity=".3"/>
    </g>
<rect width="800" height="600" fill="url(#viggallery1)"/>
</svg>