<svg xmlns="http://www.w3.org/2000/svg" viewBox="0 0 800 600" width="800" height="600" role="img">

  <defs>
    <linearGradient id="skygallery3" x1="0" y1="0" x2="0" y2="1">
      <stop offset="0%"   stop-color="#062f42"/>
      <stop offset="45%"  stop-color="#0c6076"/>
      <stop offset="82%"  stop-color="#71d6c4"/>
      <stop offset="100%" stop-color="#d8f4ea"/>
    </linearGradient>
    <linearGradient id="seagallery3" x1="0" y1="0" x2="0" y2="1">
      <stop offset="0%"   stop-color="#25a3a8"/>
      <stop offset="40%"  stop-color="#0c6076"/>
      <stop offset="100%" stop-color="#062f42"/>
    </linearGradient>
    <radialGradient id="glowgallery3" cx="50%" cy="50%" r="50%">
      <stop offset="0%"   stop-color="#d8f4ea" stop-opacity=".95"/>
      <stop offset="55%"  stop-color="#71d6c4" stop-opacity=".35"/>
      <stop offset="100%" stop-color="#71d6c4" stop-opacity="0"/>
    </radialGradient>
    <linearGradient id="viggallery3" x1="0" y1="0" x2="0" y2="1">
      <stop offset="0%"   stop-color="#04101c" stop-opacity=".42"/>
      <stop offset="40%"  stop-color="#04101c" stop-opacity="0"/>
      <stop offset="100%" stop-color="#04101c" stop-opacity=".55"/>
    </linearGradient>
    <linearGradient id="reflgallery3" x1="0" y1="0" x2="0" y2="1">
      <stop offset="0%"   stop-color="#d8f4ea" stop-opacity=".34"/>
      <stop offset="45%"  stop-color="#d8f4ea" stop-opacity=".12"/>
      <stop offset="100%" stop-color="#d8f4ea" stop-opacity="0"/>
    </linearGradient>
    <filter id="softgallery3" x="-20%" y="-20%" width="140%" height="140%">
      <feGaussianBlur stdDeviation="1.4"/>
    </filter>
    <filter id="blurgallery3" x="-25%" y="-25%" width="150%" height="150%">
      <feGaussianBlur stdDeviation="6"/>
    </filter>
  </defs>
<rect width="800" height="600" fill="url(#skygallery3)"/>
<circle cx="496" cy="84" r="156" fill="url(#glowgallery3)"/>
<circle cx="496" cy="84" r="25" fill="#d8f4ea" opacity=".9" filter="url(#softgallery3)"/>
<rect x="0" y="204" width="800" height="396" fill="url(#seagallery3)"/>
<path d="M477 204 L515 204 L574 600 L418 600 Z" fill="url(#reflgallery3)" filter="url(#blurgallery3)"/><rect x="504.4" y="207.4" width="10.1" height="1.1" rx="1.5" fill="#ffffff" opacity="0.340"/><rect x="472.8" y="212.9" width="8.9" height="1.1" rx="1.5" fill="#ffffff" opacity="0.330"/><rect x="498.1" y="219.8" width="11.1" height="1.2" rx="1.5" fill="#ffffff" opacity="0.320"/><rect x="512.1" y="227.6" width="9.1" height="1.3" rx="1.5" fill="#ffffff" opacity="0.310"/><rect x="480.1" y="236.2" width="22.3" height="1.4" rx="1.5" fill="#ffffff" opacity="0.300"/><rect x="474.8" y="245.6" width="22.7" height="1.4" rx="1.5" fill="#ffffff" opacity="0.290"/><rect x="485.5" y="255.6" width="12.5" height="1.5" rx="1.5" fill="#ffffff" opacity="0.280"/><rect x="511.9" y="266.2" width="29.3" height="1.6" rx="1.5" fill="#ffffff" opacity="0.270"/><rect x="474.9" y="277.4" width="19.8" height="1.7" rx="1.5" fill="#ffffff" opacity="0.260"/><rect x="490.2" y="289.1" width="11.9" height="1.7" rx="1.5" fill="#ffffff" opacity="0.250"/><rect x="485.9" y="301.2" width="33.6" height="1.8" rx="1.5" fill="#ffffff" opacity="0.240"/><rect x="455.5" y="313.8" width="29.1" height="1.9" rx="1.5" fill="#ffffff" opacity="0.230"/><rect x="497.9" y="326.8" width="26.9" height="2.0" rx="1.5" fill="#ffffff" opacity="0.220"/><rect x="474.1" y="340.2" width="26.3" height="2.0" rx="1.5" fill="#ffffff" opacity="0.210"/><rect x="515.7" y="354.1" width="27.5" height="2.1" rx="1.5" fill="#ffffff" opacity="0.200"/><rect x="507.7" y="368.2" width="39.9" height="2.2" rx="1.5" fill="#ffffff" opacity="0.190"/><rect x="473.8" y="382.8" width="19.2" height="2.2" rx="1.5" fill="#ffffff" opacity="0.180"/><rect x="458.0" y="397.7" width="23.2" height="2.3" rx="1.5" fill="#ffffff" opacity="0.170"/><rect x="447.9" y="412.9" width="28.6" height="2.4" rx="1.5" fill="#ffffff" opacity="0.160"/><rect x="432.0" y="428.5" width="50.0" height="2.5" rx="1.5" fill="#ffffff" opacity="0.150"/><rect x="472.9" y="444.3" width="44.8" height="2.5" rx="1.5" fill="#ffffff" opacity="0.140"/><rect x="510.2" y="460.5" width="34.4" height="2.6" rx="1.5" fill="#ffffff" opacity="0.130"/><rect x="522.9" y="477.0" width="36.3" height="2.7" rx="1.5" fill="#ffffff" opacity="0.120"/><rect x="494.2" y="493.7" width="40.0" height="2.8" rx="1.5" fill="#ffffff" opacity="0.110"/><rect x="436.2" y="510.8" width="38.6" height="2.8" rx="1.5" fill="#ffffff" opacity="0.100"/><rect x="485.4" y="528.1" width="25.8" height="2.9" rx="1.5" fill="#ffffff" opacity="0.090"/><rect x="501.7" y="545.7" width="51.5" height="3.0" rx="1.5" fill="#ffffff" opacity="0.080"/><rect x="435.8" y="563.5" width="46.7" height="3.1" rx="1.5" fill="#ffffff" opacity="0.070"/><rect x="533.8" y="581.6" width="78.3" height="3.1" rx="1.5" fill="#ffffff" opacity="0.060"/><rect x="530.6" y="600.0" width="79.7" height="3.2" rx="1.5" fill="#ffffff" opacity="0.050"/>
<rect x="265.7" y="205.6" width="63.4" height="1.3" rx="2" fill="#ffffff" opacity="0.185"/><rect x="523.4" y="209.1" width="78.8" height="1.4" rx="2" fill="#ffffff" opacity="0.179"/><rect x="21.2" y="214.1" width="94.2" height="1.5" rx="2" fill="#ffffff" opacity="0.174"/><rect x="527.6" y="220.4" width="109.5" height="1.6" rx="2" fill="#ffffff" opacity="0.168"/><rect x="689.9" y="228.0" width="124.9" height="1.7" rx="2" fill="#ffffff" opacity="0.163"/><rect x="369.8" y="236.7" width="140.3" height="1.8" rx="2" fill="#ffffff" opacity="0.158"/><rect x="382.6" y="246.6" width="155.7" height="1.9" rx="2" fill="#ffffff" opacity="0.152"/><rect x="576.6" y="257.4" width="171.1" height="2.0" rx="2" fill="#ffffff" opacity="0.147"/><rect x="324.2" y="269.2" width="186.5" height="2.1" rx="2" fill="#ffffff" opacity="0.142"/><rect x="509.0" y="282.0" width="201.8" height="2.2" rx="2" fill="#ffffff" opacity="0.136"/><rect x="179.6" y="295.8" width="217.2" height="2.3" rx="2" fill="#ffffff" opacity="0.131"/><rect x="403.8" y="310.4" width="232.6" height="2.4" rx="2" fill="#ffffff" opacity="0.125"/><rect x="52.3" y="325.9" width="248.0" height="2.5" rx="2" fill="#ffffff" opacity="0.120"/><rect x="62.4" y="342.2" width="263.4" height="2.6" rx="2" fill="#ffffff" opacity="0.115"/><rect x="149.9" y="359.5" width="278.8" height="2.7" rx="2" fill="#ffffff" opacity="0.109"/><rect x="360.4" y="377.5" width="294.2" height="2.8" rx="2" fill="#ffffff" opacity="0.104"/><rect x="563.5" y="396.3" width="309.5" height="2.9" rx="2" fill="#ffffff" opacity="0.098"/><rect x="497.7" y="415.9" width="324.9" height="3.0" rx="2" fill="#ffffff" opacity="0.093"/><rect x="383.7" y="436.3" width="340.3" height="3.1" rx="2" fill="#ffffff" opacity="0.088"/><rect x="423.4" y="457.5" width="355.7" height="3.2" rx="2" fill="#ffffff" opacity="0.082"/><rect x="168.2" y="479.4" width="371.1" height="3.3" rx="2" fill="#ffffff" opacity="0.077"/><rect x="227.3" y="502.1" width="386.5" height="3.4" rx="2" fill="#ffffff" opacity="0.072"/><rect x="293.8" y="525.5" width="401.8" height="3.5" rx="2" fill="#ffffff" opacity="0.066"/><rect x="-142.4" y="549.6" width="417.2" height="3.6" rx="2" fill="#ffffff" opacity="0.061"/><rect x="290.4" y="574.5" width="432.6" height="3.7" rx="2" fill="#ffffff" opacity="0.055"/><rect x="490.1" y="600.0" width="448.0" height="3.8" rx="2" fill="#ffffff" opacity="0.050"/>
<g transform="translate(468.0,192.1) scale(2.1600)" fill="#062f42">
      <path d="M4 36 L97 30 L99 36 Q96 46 84 50 L26 52 Q10 48 4 36 Z"/>
      <path d="M30 30 L36 17 Q54 14 70 16 L80 30 Z" opacity=".96"/>
      <path d="M33 30 L38 20 Q54 17.5 68 19.5 L76 30 Z" opacity=".55"/>
      <rect x="32" y="9" width="46" height="3.4" rx="1.7" opacity=".92"/>
      <rect x="34.5" y="11" width="2.6" height="7" opacity=".92"/>
      <rect x="73"   y="11" width="2.6" height="7" opacity=".92"/>
      <path d="M0 50 Q26 60 60 55 Q34 62 5 55 Z" opacity=".3"/>
    </g>
<rect width="800" height="600" fill="url(#viggallery3)"/>
</svg>